<?xml version="1.0" standalone="no"?><!DOCTYPE svg PUBLIC "-//W3C//DTD SVG 1.1//EN" "http://www.w3.org/Graphics/SVG/1.1/DTD/svg11.dtd"><svg t="1595999676227" class="icon" viewBox="0 0 1024 1024" version="1.1" xmlns="http://www.w3.org/2000/svg" p-id="916" xmlns:xlink="http://www.w3.org/1999/xlink" width="200" height="200"><defs><style type="text/css"></style></defs><path d="M293.714286 682.857143l46.285714-170.857143H249.142857l42.857143 171.428571q0.571429 0.571429 0.571429 1.714286t0.571428 1.714286q0-0.571429 0.285714-2t0.285715-2z m66.285714-244l20-73.142857H213.142857l18.285714 73.142857h128.571429z m109.714286 0h79.428571l-20-73.142857h-40z m256.571428 244.571428l44.571429-171.428571h-92.571429l46.285715 170.857143q0 0.571429 0.285714 2t0.857143 2q0-0.571429 0.285714-1.714286t0.285714-1.714286z m63.428572-244.571428l18.857143-73.142857h-169.714286l19.428571 73.142857h131.428572z m234.285714 18.285714v36.571429q0 8-5.142857 13.142857t-13.142857 5.142857h-121.714286l-93.714286 352q-4 13.714286-17.714285 13.714286h-90.857143q-13.714286 0-17.714286-13.714286L569.142857 512H449.714286l-95.428572 352q-4 13.714286-17.714285 13.714286H245.714286q-6.285714 0-11.142857-4t-6-9.714286L137.142857 512H18.285714q-8 0-13.142857-5.142857t-5.142857-13.142857v-36.571429q0-8 5.142857-13.142857t13.142857-5.142857h100l-18.857143-73.142857H18.285714q-8 0-13.142857-5.142857t-5.142857-13.142858v-36.571428q0-8 5.142857-13.142857t13.142857-5.142857h62.285715L29.714286 96q-2.857143-8.571429 2.857143-16 5.714286-6.857143 14.857142-6.857143h78.285715q14.857143 0 17.714285 13.714286l51.428572 205.714286h205.142857l55.428571-205.714286q4-13.714286 17.714286-13.714286h72q13.714286 0 17.714286 13.714286l56 205.714286h208.571428l53.142858-205.714286q2.857143-13.714286 17.714285-13.714286h78.285715q9.142857 0 14.857142 6.857143 5.714286 7.428571 2.857143 16l-52 196.571429h63.428572q8 0 13.142857 5.142857t5.142857 13.142857v36.571428q0 8-5.142857 13.142858t-13.142857 5.142857h-82.857143l-19.428572 73.142857h102.285715q8 0 13.142857 5.142857t5.142857 13.142857z" p-id="917"></path></svg>