<?xml version="1.0" encoding="UTF-8"?>
<svg width="20px" height="20px" viewBox="0 0 20 20" version="1.1" xmlns="http://www.w3.org/2000/svg" xmlns:xlink="http://www.w3.org/1999/xlink">
    <!-- Generator: Sketch 46.2 (44496) - http://www.bohemiancoding.com/sketch -->
    <title>Facebook-black</title>
    <desc>Created with Sketch.</desc>
    <defs></defs>
    <g id="sign" stroke="none" stroke-width="1" fill="none" fill-rule="evenodd">
        <g transform="translate(-622.000000, -609.000000)" id="Facebook" fill="#FFFFFF">
            <path d="M632.682648,629 L623.103846,629 C622.49403,629 622,628.505663 622,627.896084 L622,610.103838 C622,609.494104 622.494108,609 623.103846,609 L640.896231,609 C641.505815,609 642,609.494104 642,610.103838 L642,627.896084 C642,628.505741 641.505737,629 640.896231,629 L635.799711,629 L635.799711,621.254898 L638.399384,621.254898 L638.788648,618.236494 L635.799711,618.236494 L635.799711,616.309434 C635.799711,615.435536 636.04238,614.840004 637.295537,614.840004 L638.89388,614.839306 L638.89388,612.139621 C638.617452,612.102837 637.66866,612.020654 636.564813,612.020654 C634.260348,612.020654 632.682648,613.427303 632.682648,616.010504 L632.682648,618.236494 L630.076301,618.236494 L630.076301,621.254898 L632.682648,621.254898 L632.682648,629 L632.682648,629 Z"></path>
        </g>
    </g>
</svg>